<?xml version="1.0" encoding="UTF-8"?><svg id="Ebene_2" xmlns="http://www.w3.org/2000/svg" viewBox="0 0 261.8 109.29"><defs><style>.cls-1{fill:#0b4e51;}.cls-2{fill:#1d1d1b;}</style></defs><g id="Ebene_1-2"><g><path class="cls-1" d="M14.7,42.85c0,3.1,3.9,6.6,10.7,6.6,5.1,0,10.7-2.3,10.7-6.5C36.1,31.65,.5,39.55,.5,17.75,.5,7.45,12,.05,25.4,.05s25,8,25,18.5h-14.8c0-3.1-3.9-6-10.2-6-5.1,0-10.1,2.1-10.1,5.9,0,11.1,35.6,3.3,35.6,25.2,0,11.8-13.7,18.3-25.5,18.3C11.5,61.95,0,53.75,0,42.85H14.7Z"/><path class="cls-1" d="M67.8,0V21.3c3-3,7.4-5.1,12.6-5.1,12.6,0,19.2,9.3,19.2,20.1v25.7h-13.7v-26.6c0-4.7-3.3-8.2-7.9-8.2-7.7,0-10.2,6.9-10.2,9.1v25.7h-13.6V0h13.6Z"/><path class="cls-1" d="M128.4,16.2c14.1,0,25.5,10.5,25.5,23.3s-11.4,23.3-25.5,23.3-25.5-10.5-25.5-23.3,11.4-23.3,25.5-23.3Zm-11.8,23.3c0,6.7,5.3,12.2,11.8,12.2s11.9-5.5,11.9-12.2c0-7.1-5.8-12.2-11.9-12.2-6.5,0-11.8,5.5-11.8,12.2Z"/><path class="cls-1" d="M157.2,17h13.6v5.7c3.4-3.9,8.4-6.4,14-6.4,13.1,0,22.7,10,22.7,23.2s-9.7,23.2-22.7,23.2c-5.7,0-10.6-2.5-14-6.3v29.51h-13.6V17Zm25.2,35.5c6.3,0,11.4-5.9,11.4-13s-5.1-13-11.4-13c-4.6,0-11.6,3.4-11.6,13,0,7.2,4.8,13,11.6,13Z"/><path class="cls-1" d="M236.3,16.2c14.1,0,25.5,10.5,25.5,23.3s-11.4,23.3-25.5,23.3-25.5-10.5-25.5-23.3,11.4-23.3,25.5-23.3Zm-11.8,23.3c0,6.7,5.3,12.2,11.8,12.2s11.9-5.5,11.9-12.2c0-7.1-5.8-12.2-11.9-12.2-6.5,0-11.8,5.5-11.8,12.2Z"/><polyline class="cls-1" points="201.85 72.05 184.4 72.04 184.4 85.87 236.3 85.9 236.3 72.07"/><g><path class="cls-2" d="M55.47,105.86v-11.55h1.41v11.55h-1.41Z"/><path class="cls-2" d="M59.33,93.84c.56,0,1.05,.45,1.05,.97s-.47,.95-1.05,.95c-.54,0-1.03-.43-1.03-.95s.47-.97,1.03-.97Zm.72,3.62v8.39h-1.41v-8.39h1.41Z"/><path class="cls-2" d="M62.26,97.46l2.51,6.81,2.5-6.81h1.46l-3.15,8.39h-1.65l-3.15-8.39h1.46Z"/><path class="cls-2" d="M72.77,97.39c2.44,0,4.23,2.07,4.01,4.64h-6.67c.13,1.45,1.18,2.67,2.66,2.67,.99,0,1.88-.58,2.3-1.49l1.43,.13c-.61,1.51-1.99,2.59-3.73,2.59-2.33,0-4.11-1.9-4.11-4.27s1.86-4.27,4.11-4.27Zm2.59,3.75c-.18-1.57-1.25-2.61-2.6-2.61s-2.44,1.16-2.59,2.61h5.19Z"/><path class="cls-2" d="M86.1,97.39c2.04,0,3.42,1.08,3.42,2.41h-1.56c0-.71-.83-1.29-1.86-1.29-1.12,0-1.93,.56-1.93,1.29s.78,1.31,1.93,1.31c2.13,0,3.42,1.06,3.42,2.35s-1.39,2.48-3.42,2.48c-1.9,0-3.42-1.08-3.42-2.43h1.56c0,.73,.83,1.31,1.86,1.31,1.12,0,1.93-.58,1.93-1.31s-.76-1.29-1.93-1.29c-2.28,0-3.42-1.16-3.42-2.35,0-1.38,1.52-2.48,3.42-2.48Z"/><path class="cls-2" d="M90.67,105.86v-11.55h1.41v4.46c.54-.82,1.48-1.38,2.59-1.38,2.03,0,3.36,1.62,3.36,3.54v4.93h-1.41v-5c0-1.27-.96-2.26-2.17-2.26-1.48,0-2.37,1.31-2.37,2.33v4.93h-1.41Z"/><path class="cls-2" d="M103.03,97.39c2.26,0,4.11,1.92,4.11,4.27s-1.84,4.27-4.11,4.27-4.12-1.92-4.12-4.27,1.84-4.27,4.12-4.27Zm-2.71,4.27c0,1.68,1.21,3.04,2.71,3.04s2.69-1.36,2.69-3.04-1.25-3.04-2.69-3.04-2.71,1.36-2.71,3.04Z"/><path class="cls-2" d="M108.11,109.01v-11.55h1.41v1.72c.62-1.06,1.68-1.79,2.91-1.79,2.17,0,3.85,1.88,3.85,4.27s-1.68,4.27-3.87,4.27c-1.21,0-2.28-.73-2.89-1.79v4.87h-1.41Zm4.09-4.23c1.46,0,2.68-1.4,2.68-3.12s-1.19-3.13-2.68-3.13c-1.3,0-2.66,1.18-2.66,3.13,0,1.73,1.16,3.12,2.66,3.12Z"/><path class="cls-2" d="M117.26,109.01v-11.55h1.41v1.72c.62-1.06,1.68-1.79,2.91-1.79,2.17,0,3.85,1.88,3.85,4.27s-1.68,4.27-3.87,4.27c-1.21,0-2.28-.73-2.89-1.79v4.87h-1.41Zm4.09-4.23c1.46,0,2.68-1.4,2.68-3.12s-1.19-3.13-2.68-3.13c-1.3,0-2.66,1.18-2.66,3.13,0,1.73,1.16,3.12,2.66,3.12Z"/><path class="cls-2" d="M127.18,93.84c.56,0,1.05,.45,1.05,.97s-.47,.95-1.05,.95c-.54,0-1.03-.43-1.03-.95s.47-.97,1.03-.97Zm.72,3.62v8.39h-1.41v-8.39h1.41Z"/><path class="cls-2" d="M129.71,105.86v-8.39h1.41v1.31c.54-.8,1.48-1.38,2.59-1.38,2.03,0,3.36,1.62,3.36,3.56v4.91h-1.41v-5c0-1.25-.96-2.26-2.17-2.26-1.48,0-2.37,1.32-2.37,2.35v4.91h-1.41Z"/><path class="cls-2" d="M142.06,97.42c1.18,0,2.21,.67,2.77,1.68v-1.64h1.37v7.87c0,2.35-1.84,3.95-4.03,3.95-1.93,0-3.26-1.21-3.76-2.48l1.46-.15c.4,.8,1.27,1.31,2.26,1.31,1.7,0,2.69-1.23,2.69-2.55v-1.19c-.56,.99-1.59,1.68-2.77,1.68-2.19,0-3.98-1.92-3.98-4.23s1.79-4.24,3.98-4.24Zm-2.57,4.24c0,1.64,1.16,3.1,2.66,3.1s2.68-1.27,2.68-3.1-1.21-3.1-2.68-3.1-2.66,1.38-2.66,3.1Z"/><path class="cls-2" d="M156.64,97.39c2.44,0,4.23,2.07,4.01,4.64h-6.67c.13,1.45,1.18,2.67,2.66,2.67,.99,0,1.88-.58,2.3-1.49l1.43,.13c-.62,1.51-1.99,2.59-3.73,2.59-2.33,0-4.11-1.9-4.11-4.27s1.86-4.27,4.11-4.27Zm2.59,3.75c-.18-1.57-1.25-2.61-2.6-2.61s-2.44,1.16-2.59,2.61h5.19Z"/><path class="cls-2" d="M160.51,97.46h1.72l1.99,2.95,2.01-2.95h1.72l-2.86,4.23,2.82,4.16h-1.72l-1.97-2.91-1.95,2.91h-1.72l2.82-4.18-2.86-4.22Z"/><path class="cls-2" d="M168.82,109.01v-11.55h1.41v1.72c.62-1.06,1.68-1.79,2.91-1.79,2.17,0,3.85,1.88,3.85,4.27s-1.68,4.27-3.87,4.27c-1.21,0-2.28-.73-2.89-1.79v4.87h-1.41Zm4.09-4.23c1.46,0,2.68-1.4,2.68-3.12s-1.19-3.13-2.68-3.13c-1.3,0-2.66,1.18-2.66,3.13,0,1.73,1.16,3.12,2.66,3.12Z"/><path class="cls-2" d="M181.62,97.39c2.44,0,4.23,2.07,4.02,4.64h-6.67c.13,1.45,1.18,2.67,2.66,2.67,1,0,1.88-.58,2.3-1.49l1.43,.13c-.62,1.51-1.99,2.59-3.73,2.59-2.33,0-4.1-1.9-4.1-4.27s1.86-4.27,4.1-4.27Zm2.59,3.75c-.18-1.57-1.25-2.61-2.6-2.61s-2.44,1.16-2.59,2.61h5.19Z"/><path class="cls-2" d="M186.7,105.86v-8.39h1.41v1.72c.62-1.12,1.86-1.64,2.88-1.64,.22,0,.43,.04,.62,.07l-.62,1.34c-1.43-.32-2.88,1.03-2.88,2.71v4.2h-1.41Z"/><path class="cls-2" d="M193.12,93.84c.56,0,1.05,.45,1.05,.97s-.47,.95-1.05,.95c-.54,0-1.03-.43-1.03-.95s.47-.97,1.03-.97Zm.72,3.62v8.39h-1.41v-8.39h1.41Z"/><path class="cls-2" d="M198.98,97.39c2.44,0,4.23,2.07,4.01,4.64h-6.67c.13,1.45,1.18,2.67,2.66,2.67,.99,0,1.88-.58,2.3-1.49l1.43,.13c-.61,1.51-1.99,2.59-3.73,2.59-2.33,0-4.11-1.9-4.11-4.27s1.86-4.27,4.11-4.27Zm2.59,3.75c-.18-1.57-1.25-2.61-2.6-2.61s-2.44,1.16-2.59,2.61h5.19Z"/><path class="cls-2" d="M204.07,105.86v-8.39h1.41v1.31c.54-.8,1.48-1.38,2.59-1.38,2.03,0,3.36,1.62,3.36,3.56v4.91h-1.41v-5c0-1.25-.96-2.26-2.17-2.26-1.48,0-2.37,1.32-2.37,2.35v4.91h-1.41Z"/><path class="cls-2" d="M212.35,101.66c0-2.48,1.86-4.27,4.02-4.27,1.65,0,3.09,.99,3.71,2.76l-1.34,.11c-.42-1.1-1.39-1.64-2.33-1.64-1.56,0-2.64,1.44-2.64,3.04s1.12,3.04,2.64,3.04c1.03,0,1.92-.62,2.33-1.68l1.34,.11c-.62,1.81-2.06,2.8-3.71,2.8-2.19,0-4.02-1.83-4.02-4.27Z"/><path class="cls-2" d="M224.76,97.39c2.44,0,4.23,2.07,4.01,4.64h-6.67c.13,1.45,1.18,2.67,2.66,2.67,.99,0,1.88-.58,2.3-1.49l1.43,.13c-.62,1.51-1.99,2.59-3.73,2.59-2.33,0-4.11-1.9-4.11-4.27s1.86-4.27,4.11-4.27Zm2.59,3.75c-.18-1.57-1.25-2.61-2.6-2.61s-2.44,1.16-2.59,2.61h5.19Z"/><path class="cls-2" d="M232.88,97.39c2.04,0,3.42,1.08,3.42,2.41h-1.56c0-.71-.83-1.29-1.86-1.29-1.12,0-1.94,.56-1.94,1.29s.78,1.31,1.94,1.31c2.13,0,3.42,1.06,3.42,2.35s-1.39,2.48-3.42,2.48c-1.9,0-3.42-1.08-3.42-2.43h1.56c0,.73,.83,1.31,1.86,1.31,1.12,0,1.93-.58,1.93-1.31s-.76-1.29-1.93-1.29c-2.28,0-3.42-1.16-3.42-2.35,0-1.38,1.52-2.48,3.42-2.48Z"/></g></g></g></svg>